<?xml version="1.0" encoding="utf-8"?>
<!-- Generator: Adobe Illustrator 15.0.0, SVG Export Plug-In . SVG Version: 6.00 Build 0)  -->
<!DOCTYPE svg PUBLIC "-//W3C//DTD SVG 1.1//EN" "http://www.w3.org/Graphics/SVG/1.1/DTD/svg11.dtd">
<svg version="1.1" id="Layer_1" xmlns="http://www.w3.org/2000/svg" xmlns:xlink="http://www.w3.org/1999/xlink" x="0px" y="0px"
	 width="16px" height="16px" viewBox="0 0 16 16" enable-background="new 0 0 16 16" xml:space="preserve">
<path d="M12.989,9.477c-0.217-0.223-0.501-0.335-0.784-0.335l0,0h-1.109v1.143l0,0c0,0.293,0.108,0.585,0.325,0.809l0.324,0.334
	H7.768c-0.612,0-1.11-0.512-1.11-1.143V5.713c0-1.89-1.493-3.428-3.329-3.428H0v2.285h3.328c0.612,0,1.109,0.513,1.109,1.143v4.571
	c0,1.891,1.494,3.429,3.33,3.429h3.979l-0.325,0.335c-0.217,0.224-0.325,0.516-0.325,0.808v1.143h1.109
	c0.284,0,0.567-0.111,0.784-0.335l3.004-3.093L12.989,9.477z"/>
<g>
	<path d="M12.989,0.335C12.772,0.111,12.488,0,12.204,0h-1.108v1.143l0,0c0,0.292,0.108,0.585,0.325,0.808l0.325,0.335H7.768
		c-0.256,0-0.49,0.05-0.729,0.107c0.533,0.629,0.955,1.346,1.145,2.178h3.562l-0.325,0.335c-0.217,0.223-0.325,0.515-0.325,0.808
		l0,0v1.143h1.109c0.284,0,0.567-0.112,0.784-0.335l3.004-3.093L12.989,0.335z"/>
	<path d="M0,11.427v2.286h3.328c0.256,0,0.49-0.051,0.729-0.107c-0.534-0.629-0.955-1.346-1.145-2.179H0z"/>
</g>
</svg>
