<?xml version="1.0" encoding="utf-8"?>
<!-- Generator: Adobe Illustrator 15.0.0, SVG Export Plug-In . SVG Version: 6.00 Build 0)  -->
<!DOCTYPE svg PUBLIC "-//W3C//DTD SVG 1.1//EN" "http://www.w3.org/Graphics/SVG/1.1/DTD/svg11.dtd">
<svg version="1.1" id="Layer_1" xmlns="http://www.w3.org/2000/svg" xmlns:xlink="http://www.w3.org/1999/xlink" x="0px" y="0px"
	 width="16px" height="16px" viewBox="0 0 16 16" enable-background="new 0 0 16 16" xml:space="preserve">
<path d="M3.266,2.536c1.698,0,3.079,1.425,3.079,3.178v4.571c0,0.768,0.61,1.393,1.36,1.393h3.978h0.591l-0.411-0.424l-0.324-0.334
	c-0.164-0.17-0.255-0.395-0.255-0.635V9.392h0.859c0.228,0,0.442,0.092,0.604,0.259l2.835,2.92l-2.835,2.919
	c-0.162,0.167-0.376,0.259-0.604,0.259h-0.859v-0.893c0-0.239,0.091-0.464,0.255-0.634l0.325-0.335l0.411-0.424h-0.591H7.705
	c-1.698,0-3.08-1.426-3.08-3.179V5.713c0-0.768-0.609-1.393-1.359-1.393H0.188V2.536H3.266 M3.266,2.286h-3.328v2.285h3.328
	c0.612,0,1.109,0.513,1.109,1.143v4.571c0,1.891,1.494,3.429,3.33,3.429h3.979l-0.325,0.335c-0.217,0.224-0.325,0.516-0.325,0.808
	v1.143h1.109c0.284,0,0.567-0.111,0.784-0.335l3.004-3.093l-3.004-3.094c-0.217-0.223-0.501-0.335-0.784-0.335h-1.109v1.143
	c0,0.293,0.108,0.585,0.325,0.809l0.324,0.334H7.705c-0.612,0-1.11-0.512-1.11-1.143V5.713C6.595,3.823,5.102,2.286,3.266,2.286
	L3.266,2.286z"/>
<g>
	<path d="M12.142,0.25c0.229,0,0.443,0.092,0.605,0.259l2.835,2.919l-2.835,2.919c-0.162,0.167-0.377,0.259-0.604,0.259h-0.859
		V5.713c0-0.24,0.091-0.464,0.255-0.633l0.325-0.335l0.411-0.424h-0.591H8.316c-0.167-0.612-0.46-1.193-0.89-1.765
		C7.518,2.543,7.61,2.536,7.705,2.536h3.979h0.591l-0.411-0.424l-0.325-0.335c-0.164-0.169-0.255-0.394-0.255-0.634V0.25H12.142
		 M12.142,0h-1.108v1.143c0,0.292,0.108,0.585,0.325,0.808l0.325,0.335H7.705c-0.256,0-0.49,0.05-0.729,0.107
		C7.51,3.022,7.932,3.738,8.121,4.571h3.562l-0.325,0.335c-0.217,0.223-0.325,0.515-0.325,0.808v1.143h1.109
		c0.284,0,0.567-0.112,0.784-0.335l3.004-3.093l-3.004-3.093C12.71,0.111,12.426,0,12.142,0L12.142,0z"/>
	<path d="M2.654,11.677c0.168,0.613,0.46,1.195,0.889,1.765c-0.092,0.014-0.184,0.021-0.277,0.021H0.188v-1.786H2.654 M2.85,11.427
		h-2.912v2.286h3.328c0.256,0,0.49-0.051,0.729-0.107C3.46,12.977,3.039,12.26,2.85,11.427L2.85,11.427z"/>
</g>
</svg>
