<?xml version="1.0" encoding="utf-8"?>
<!-- Generator: Adobe Illustrator 15.0.0, SVG Export Plug-In . SVG Version: 6.00 Build 0)  -->
<!DOCTYPE svg PUBLIC "-//W3C//DTD SVG 1.1//EN" "http://www.w3.org/Graphics/SVG/1.1/DTD/svg11.dtd">
<svg version="1.1" id="Layer_1" xmlns="http://www.w3.org/2000/svg" xmlns:xlink="http://www.w3.org/1999/xlink" x="0px" y="0px"
	 width="16px" height="16px" viewBox="0 0 16 16" enable-background="new 0 0 16 16" xml:space="preserve">
<path d="M12.641,1.233H3.477c-1.885,0-3.438,1.553-3.438,3.437v4.583c0,1.884,1.553,3.437,3.438,3.437h1.145v-2.291H3.477
	c-0.655,0-1.146-0.491-1.146-1.146V4.67c0-0.654,0.491-1.146,1.146-1.146h9.164c0.655,0,1.146,0.491,1.146,1.146v4.583
	c0,0.654-0.491,1.146-1.146,1.146h-1.79l0.322-0.322c0.304-0.283,0.399-0.689,0.322-1.067V8.107h-0.952
	c-0.11-0.015-0.223-0.019-0.336,0C9.949,8.135,9.71,8.248,9.526,8.43l-2.292,2.291l-0.787,0.823l0.787,0.823l2.292,2.292
	c0.251,0.251,0.588,0.35,0.917,0.322h1.052v-1.048c0.028-0.331-0.069-0.67-0.322-0.922l-0.322-0.322h1.79
	c1.885,0,3.438-1.553,3.438-3.437V4.67C16.078,2.786,14.525,1.233,12.641,1.233z"/>
</svg>
