<?xml version="1.0" encoding="utf-8"?>
<!-- Generator: Adobe Illustrator 15.0.0, SVG Export Plug-In . SVG Version: 6.00 Build 0)  -->
<!DOCTYPE svg PUBLIC "-//W3C//DTD SVG 1.1//EN" "http://www.w3.org/Graphics/SVG/1.1/DTD/svg11.dtd">
<svg version="1.1" id="Layer_1" xmlns="http://www.w3.org/2000/svg" xmlns:xlink="http://www.w3.org/1999/xlink" x="0px" y="0px"
	 width="16px" height="16px" viewBox="0 0 16 16" enable-background="new 0 0 16 16" xml:space="preserve">
<path d="M12.578,1.483c1.748,0,3.171,1.43,3.172,3.187v4.582c0,1.758-1.423,3.188-3.172,3.188h-1.78h-0.603l0.426,0.427l0.319,0.32
	c0.185,0.187,0.273,0.443,0.248,0.747v0.797l-0.818,0.001c-0.029,0.003-0.058,0.004-0.087,0.004c-0.171,0-0.419-0.044-0.628-0.253
	l-2.276-2.287L6.76,11.544l0.615-0.646l2.279-2.29c0.143-0.141,0.33-0.23,0.545-0.254c0.039-0.007,0.078-0.009,0.117-0.009
	c0.047,0,0.095,0.004,0.175,0.013h0.697V9.01v0.025l0.005,0.024c0.065,0.322-0.024,0.627-0.252,0.841l-0.32,0.321l-0.426,0.427
	h0.603h1.78c0.793,0,1.392-0.6,1.392-1.396V4.67c0-0.796-0.599-1.396-1.392-1.396H3.46c-0.792,0-1.39,0.6-1.39,1.396v4.583
	c0,0.796,0.598,1.396,1.39,1.396h0.89v1.791H3.46c-1.749,0-3.171-1.43-3.171-3.187V4.67c0-1.757,1.422-3.187,3.171-3.187H12.578
	 M12.578,1.233H3.46c-1.876,0-3.421,1.553-3.421,3.437v4.583c0,1.884,1.545,3.437,3.421,3.437H4.6v-2.291H3.46
	c-0.652,0-1.14-0.49-1.14-1.146V4.67c0-0.654,0.488-1.146,1.14-1.146h9.118c0.652,0,1.142,0.491,1.142,1.146v4.583
	c0,0.654-0.489,1.146-1.142,1.146h-1.78l0.32-0.321c0.302-0.283,0.397-0.688,0.32-1.067V8.107h-0.947
	c-0.058-0.008-0.116-0.013-0.175-0.013c-0.053,0-0.106,0.004-0.159,0.013C9.9,8.135,9.662,8.248,9.479,8.43l-2.28,2.291
	l-0.783,0.823l0.783,0.823l2.28,2.292c0.224,0.224,0.513,0.326,0.805,0.326c0.036,0,0.072-0.002,0.108-0.005h1.047v-1.047
	c0.028-0.332-0.069-0.67-0.32-0.923l-0.32-0.321h1.78c1.876,0,3.422-1.554,3.422-3.438V4.67C15.999,2.786,14.454,1.233,12.578,1.233
	L12.578,1.233z"/>
</svg>
