<?xml version="1.0" encoding="UTF-8" standalone="no"?>
<!-- Generator: Adobe Illustrator 14.0.0, SVG Export Plug-In . SVG Version: 6.00 Build 43363)  -->
<svg
   xmlns:dc="http://purl.org/dc/elements/1.1/"
   xmlns:cc="http://creativecommons.org/ns#"
   xmlns:rdf="http://www.w3.org/1999/02/22-rdf-syntax-ns#"
   xmlns:svg="http://www.w3.org/2000/svg"
   xmlns="http://www.w3.org/2000/svg"
   xmlns:xlink="http://www.w3.org/1999/xlink"
   xmlns:sodipodi="http://sodipodi.sourceforge.net/DTD/sodipodi-0.dtd"
   xmlns:inkscape="http://www.inkscape.org/namespaces/inkscape"
   version="1.0"
   id="Layer_1"
   x="0px"
   y="0px"
   width="512"
   height="512"
   viewBox="0 0 655.574 584.744"
   enable-background="new 0 0 655.574 584.744"
   xml:space="preserve"
   sodipodi:version="0.32"
   inkscape:version="0.46"
   sodipodi:docname="eina-logo.svg"
   inkscape:output_extension="org.inkscape.output.svg.inkscape"
   style="display:inline"
   inkscape:export-filename="/home/xuzo/svn/eina-git/pixmaps/eina-logo.png"
   inkscape:export-xdpi="90"
   inkscape:export-ydpi="90"><metadata
   id="metadata31"><rdf:RDF><cc:Work
       rdf:about=""><dc:format>image/svg+xml</dc:format><dc:type
         rdf:resource="http://purl.org/dc/dcmitype/StillImage" /></cc:Work></rdf:RDF></metadata><defs
   id="defs29"><inkscape:perspective
   sodipodi:type="inkscape:persp3d"
   inkscape:vp_x="0 : 292.37201 : 1"
   inkscape:vp_y="0 : 1000 : 0"
   inkscape:vp_z="655.57397 : 292.37201 : 1"
   inkscape:persp3d-origin="327.78699 : 194.91467 : 1"
   id="perspective33" /><linearGradient
   inkscape:collect="always"
   xlink:href="#SVGID_1_"
   id="linearGradient4643"
   x1="708.9364"
   y1="287.19162"
   x2="1185.1876"
   y2="287.19162"
   gradientUnits="userSpaceOnUse"
   spreadMethod="repeat" /><linearGradient
   inkscape:collect="always"
   xlink:href="#SVGID_1_"
   id="linearGradient4653"
   x1="705.66718"
   y1="287.19162"
   x2="1188.4568"
   y2="287.19162"
   gradientUnits="userSpaceOnUse" /><linearGradient
   inkscape:collect="always"
   xlink:href="#SVGID_1_"
   id="linearGradient4659"
   gradientUnits="userSpaceOnUse"
   x1="185.24271"
   y1="35.840302"
   x2="465.42599"
   y2="540.07288"
   gradientTransform="translate(1125.6915,95.879084)" /><linearGradient
   inkscape:collect="always"
   xlink:href="#SVGID_1_"
   id="linearGradient4666"
   gradientUnits="userSpaceOnUse"
   x1="705.66718"
   y1="287.19162"
   x2="1188.4568"
   y2="287.19162" />
	<linearGradient
   y2="540.07288"
   x2="465.42599"
   y1="35.840302"
   x1="185.24271"
   gradientUnits="userSpaceOnUse"
   id="SVGID_1_">
		<stop
   id="stop6"
   style="stop-color:#486fac;stop-opacity:1;"
   offset="0" />
		<stop
   id="stop8"
   style="stop-color:#466DAB"
   offset="0.5379" />
		<stop
   id="stop10"
   style="stop-color:#3F67A6"
   offset="0.7317" />
		<stop
   id="stop12"
   style="stop-color:#345C9D"
   offset="0.8694" />
		<stop
   id="stop14"
   style="stop-color:#234C91"
   offset="0.9803" />
		<stop
   id="stop16"
   style="stop-color:#1F488E"
   offset="1" />
	</linearGradient>
	
	
	
	
<linearGradient
   inkscape:collect="always"
   xlink:href="#SVGID_1_"
   id="linearGradient4686"
   gradientUnits="userSpaceOnUse"
   gradientTransform="translate(1023.9028,71.533716)"
   x1="185.24271"
   y1="35.840302"
   x2="465.42599"
   y2="540.07288" /><linearGradient
   inkscape:collect="always"
   xlink:href="#SVGID_1_"
   id="linearGradient4693"
   gradientUnits="userSpaceOnUse"
   gradientTransform="translate(1.515121,-1.102739)"
   x1="185.24271"
   y1="35.840302"
   x2="465.42599"
   y2="540.07288" /><linearGradient
   inkscape:collect="always"
   xlink:href="#SVGID_1_"
   id="linearGradient4695"
   gradientUnits="userSpaceOnUse"
   x1="705.66718"
   y1="287.19162"
   x2="1188.4568"
   y2="287.19162" /><linearGradient
   inkscape:collect="always"
   xlink:href="#SVGID_1_"
   id="linearGradient2408"
   gradientUnits="userSpaceOnUse"
   x1="705.66718"
   y1="287.19162"
   x2="1188.4568"
   y2="287.19162" /><linearGradient
   inkscape:collect="always"
   xlink:href="#SVGID_1_"
   id="linearGradient2420"
   gradientUnits="userSpaceOnUse"
   x1="705.66718"
   y1="287.19162"
   x2="1188.4568"
   y2="287.19162" /></defs><sodipodi:namedview
   inkscape:window-height="973"
   inkscape:window-width="1680"
   inkscape:pageshadow="2"
   inkscape:pageopacity="0.0"
   guidetolerance="10.0"
   gridtolerance="10.0"
   objecttolerance="10.0"
   borderopacity="1.0"
   bordercolor="#666666"
   pagecolor="#ffffff"
   id="base"
   showgrid="false"
   inkscape:zoom="0.84481411"
   inkscape:cx="550.31549"
   inkscape:cy="309.47161"
   inkscape:window-x="0"
   inkscape:window-y="25"
   inkscape:current-layer="Layer_1" />
<g
   transform="matrix(1.0883552,0,0,1.0883552,542.73039,-89.640806)"
   id="g4626">
		
	</g><path
   transform="matrix(1.0094219,0.900584,-0.900584,1.0094219,-369.55798,-850.43425)"
   d="M 1185.1876,287.19162 A 238.12563,238.12563 0 1 1 708.93639,287.19162 A 238.12563,238.12563 0 1 1 1185.1876,287.19162 z"
   sodipodi:ry="238.12563"
   sodipodi:rx="238.12563"
   sodipodi:cy="287.19162"
   sodipodi:cx="947.06201"
   id="path2406"
   style="fill:url(#linearGradient2420);fill-opacity:1;fill-rule:nonzero;stroke:#2d5092;stroke-width:6.53836298;stroke-linecap:butt;stroke-linejoin:round;stroke-miterlimit:0;stroke-dasharray:none;stroke-dashoffset:0;stroke-opacity:1"
   sodipodi:type="arc"
   inkscape:export-xdpi="98.339996"
   inkscape:export-ydpi="98.339996" /><path
   style="fill:#2d5092;fill-opacity:1;stroke:#ffffff;stroke-width:11.05611706"
   id="path4628"
   d="M 124.90063,305.37738 C 122.97908,296.98578 122.00393,286.08333 122.00393,270.9829 C 122.00393,196.33311 161.52735,80.592118 314.77957,80.592118 C 450.67918,80.592118 533.5702,176.20763 533.5702,298.66188 C 533.5702,421.12278 447.7902,504.15201 304.1767,504.15201 C 229.9625,504.15201 177.9103,489.89404 148.03998,478.15353 L 163.45442,425.31635 C 194.30209,437.06128 231.88958,446.28539 292.612,446.28539 C 378.39206,446.28539 450.68028,405.17873 452.61289,305.37738 L 124.90063,305.37738 L 124.90063,305.37738 z M 451.64437,252.53244 C 444.89793,201.37137 408.27122,133.43483 321.52714,133.43483 C 226.10612,133.43483 202.96678,206.4019 203.93529,252.53244 L 451.64437,252.53244 z" /><path
   style="opacity:0.3;fill:#ffffff"
   id="path4655"
   d="M 326.50569,162.59496 C 441.28987,132.3985 552.62399,144.54142 627.90033,187.78191 C 584.45587,63.664821 466.69916,-25.328089 328.21586,-25.328089 C 152.82026,-25.328089 10.635429,117.41414 10.635429,293.49608 C 10.635429,346.78326 23.675966,397.00346 46.69873,441.15496 C 40.709817,326.96074 158.10431,206.89683 326.50569,162.59496 z" /><g
   inkscape:groupmode="layer"
   id="layer1"
   inkscape:label="Older"
   style="display:none"><path
     style="fill:url(#linearGradient4693)"
     id="path18"
     d="M 617.67212,291.26625 C 617.67212,450.52929 488.56512,579.64129 329.30112,579.64129 C 170.03812,579.64129 40.933121,450.52929 40.933121,291.26625 C 40.932121,132.00425 170.03812,2.897261 329.30112,2.897261 C 488.56412,2.897261 617.67212,132.00425 617.67212,291.26625 z" /><g
     transform="translate(-7.0113791,-1.102739)"
     id="g20">
		<path
   style="fill:#2d5092;stroke:#ffffff;stroke-width:10"
   id="path22"
   d="M 152.808,299.339 C 151.07,291.749 150.188,281.888 150.188,268.23 C 150.188,200.711 185.936,96.026 324.549,96.026 C 447.467,96.026 522.44,182.508 522.44,293.265 C 522.44,404.028 444.854,479.126 314.959,479.126 C 247.834,479.126 200.754,466.23 173.737,455.611 L 187.679,407.821 C 215.58,418.444 249.577,426.787 304.499,426.787 C 382.085,426.787 447.468,389.607 449.216,299.339 L 152.808,299.339 L 152.808,299.339 z M 448.34,251.542 C 442.238,205.268 409.11,143.821 330.652,143.821 C 244.346,143.821 223.417,209.818 224.293,251.542 L 448.34,251.542 z" />
	</g><path
     style="opacity:0.3;fill:#ffffff"
     id="path24"
     d="M 335.87462,172.86925 C 440.10062,145.55725 541.19362,156.54025 609.54562,195.65025 C 570.09762,83.389251 463.17262,2.897261 337.42762,2.897261 C 178.16562,2.897261 49.059621,132.00425 49.059621,291.26625 C 49.059621,339.46325 60.900621,384.88625 81.805621,424.82025 C 76.367621,321.53425 182.96362,212.93925 335.87462,172.86925 z" /><path
     style="fill:none;stroke:#2d5092;stroke-width:8"
     id="path26"
     d="M 617.67212,291.26625 C 617.67212,450.52929 488.56512,579.64129 329.30112,579.64129 C 170.03812,579.64129 40.933121,450.52929 40.933121,291.26625 C 40.932121,132.00425 170.03812,2.897261 329.30112,2.897261 C 488.56412,2.897261 617.67212,132.00425 617.67212,291.26625 z" /></g>
</svg>