<?xml version="1.0" encoding="utf-8"?>
<!-- Generator: Adobe Illustrator 14.0.0, SVG Export Plug-In . SVG Version: 6.00 Build 43363)  -->
<!DOCTYPE svg PUBLIC "-//W3C//DTD SVG 1.1//EN" "http://www.w3.org/Graphics/SVG/1.1/DTD/svg11.dtd">
<svg version="1.1" id="Layer_1" xmlns="http://www.w3.org/2000/svg" xmlns:xlink="http://www.w3.org/1999/xlink" x="0px" y="0px"
	 width="655.574px" height="584.744px" viewBox="0 0 655.574 584.744" enable-background="new 0 0 655.574 584.744"
	 xml:space="preserve">
<g>
	<linearGradient id="SVGID_1_" gradientUnits="userSpaceOnUse" x1="185.2427" y1="35.8403" x2="465.426" y2="540.0729">
		<stop  offset="0" style="stop-color:#486FAC"/>
		<stop  offset="0.5379" style="stop-color:#466DAB"/>
		<stop  offset="0.7317" style="stop-color:#3F67A6"/>
		<stop  offset="0.8694" style="stop-color:#345C9D"/>
		<stop  offset="0.9803" style="stop-color:#234C91"/>
		<stop  offset="1" style="stop-color:#1F488E"/>
	</linearGradient>
	<path fill="url(#SVGID_1_)" d="M616.157,292.369c0,159.263-129.107,288.375-288.371,288.375
		c-159.263,0-288.368-129.112-288.368-288.375C39.417,133.107,168.523,4,327.786,4C487.049,4,616.157,133.107,616.157,292.369z"/>
	<g>
		<path fill="#2D5092" stroke="#FFFFFF" stroke-width="10" d="M152.808,299.339c-1.738-7.59-2.62-17.451-2.62-31.109
			c0-67.519,35.748-172.204,174.361-172.204c122.918,0,197.891,86.482,197.891,197.239c0,110.763-77.586,185.861-207.481,185.861
			c-67.125,0-114.205-12.896-141.222-23.515l13.942-47.79c27.901,10.623,61.898,18.966,116.82,18.966
			c77.586,0,142.969-37.18,144.717-127.448H152.808z M448.34,251.542c-6.102-46.274-39.23-107.721-117.688-107.721
			c-86.306,0-107.235,65.997-106.359,107.721H448.34z"/>
	</g>
	<path opacity="0.3" fill="#FFFFFF" d="M330.451,173.972c104.226-27.312,205.319-16.329,273.671,22.781
		C564.674,84.492,457.749,4,332.004,4C172.742,4,43.636,133.107,43.636,292.369c0,48.197,11.841,93.62,32.746,133.554
		C70.944,322.637,177.54,214.042,330.451,173.972z"/>
	<path fill="none" stroke="#2D5092" stroke-width="8" d="M616.157,292.369c0,159.263-129.107,288.375-288.371,288.375
		c-159.263,0-288.368-129.112-288.368-288.375C39.417,133.107,168.523,4,327.786,4C487.049,4,616.157,133.107,616.157,292.369z"/>
</g>
</svg>
