<?xml version="1.0" encoding="UTF-8" standalone="no"?>
<!DOCTYPE svg PUBLIC "-//W3C//DTD SVG 20010904//EN"
"http://www.w3.org/TR/2001/REC-SVG-20010904/DTD/svg10.dtd">
<!-- Created with Sodipodi ("http://www.sodipodi.com/") -->
<svg
   xmlns="http://www.w3.org/2000/svg"
   xmlns:sodipodi="http://sodipodi.sourceforge.net/DTD/sodipodi-0.dtd"
   xmlns:xlink="http://www.w3.org/1999/xlink"
   id="svg602"
   sodipodi:version="0.34"
   width="210mm"
   height="297mm"
   xml:space="preserve"
   sodipodi:docbase="/home/pauto"
   sodipodi:docname="/home/pauto/eina.svg"><defs
   id="defs604"><linearGradient
   id="linearGradient675"><stop
   style="stop-color:#f3ffff;stop-opacity:1;"
   offset="0"
   id="stop676" /><stop
   style="stop-color:#61b2e5;stop-opacity:1;"
   offset="1"
   id="stop677" /></linearGradient><linearGradient
   id="linearGradient630"><stop
   style="stop-color:#000000;stop-opacity:1;"
   offset="0"
   id="stop631" /><stop
   style="stop-color:#ffffff;stop-opacity:1;"
   offset="1"
   id="stop632" /></linearGradient><linearGradient
   id="linearGradient619"><stop
   style="stop-color:#9ee2e7;stop-opacity:0.7608;"
   offset="0"
   id="stop620" /><stop
   style="stop-color:#8fcaff;stop-opacity:1;"
   offset="1"
   id="stop621" /></linearGradient><linearGradient
   xlink:href="#linearGradient619"
   id="linearGradient622"
   x1="0.53409094"
   y1="0.47500002"
   x2="0.53409094"
   y2="0.10000001"
   spreadMethod="reflect" /><linearGradient
   xlink:href="#linearGradient619"
   id="linearGradient623"
   x1="0.49230829"
   y1="0.31249955"
   x2="0.50769264"
   y2="0.79687488"
   spreadMethod="reflect" /><linearGradient
   xlink:href="#linearGradient630"
   id="linearGradient624" /><linearGradient
   xlink:href="#linearGradient630"
   id="linearGradient625" /><radialGradient
   xlink:href="#linearGradient675"
   id="radialGradient626"
   cx="0.97850388"
   cy="0.22510889"
   r="0.91800559"
   fx="0.97850388"
   fy="0.22510889"
   gradientUnits="objectBoundingBox"
   gradientTransform="scale(0.669699,1.493208)"
   spreadMethod="pad" /><radialGradient
   xlink:href="#linearGradient675"
   id="radialGradient627"
   cx="504.368378"
   cy="-24.1930847"
   r="86.6027832"
   fx="504.368378"
   fy="-24.1930847" /><radialGradient
   xlink:href="#linearGradient619"
   id="radialGradient628"
   cx="-2.48425746"
   cy="-0.33455962"
   r="2.36713123"
   fx="-2.48425746"
   fy="-0.33455962"
   gradientUnits="objectBoundingBox"
   spreadMethod="reflect" /><radialGradient
   xlink:href="#linearGradient619"
   id="radialGradient629"
   cx="-1.11240506"
   cy="-0.26764762"
   r="1.89370465"
   fx="-1.11240506"
   fy="-0.26764762"
   gradientUnits="objectBoundingBox"
   spreadMethod="reflect" /></defs><sodipodi:namedview
   id="base"><sodipodi:guide
   orientation="horizontal"
   position="728.846375"
   id="guide678" /><sodipodi:guide
   orientation="vertical"
   position="240.1745"
   id="guide679" /><sodipodi:guide
   orientation="horizontal"
   position="621.243408"
   id="guide729" /><sodipodi:guide
   orientation="vertical"
   position="250.605927"
   id="guide657" /><sodipodi:guide
   orientation="horizontal"
   position="832.472595"
   id="guide658" /><sodipodi:guide
   orientation="horizontal"
   position="807.946899"
   id="guide685" /><sodipodi:guide
   orientation="horizontal"
   position="756.007446"
   id="guide686" /><sodipodi:guide
   orientation="vertical"
   position="303.149811"
   id="guide687" /><sodipodi:guide
   orientation="horizontal"
   position="781.467957"
   id="guide688" /></sodipodi:namedview><path
   style="font-size:12;fill:url(#linearGradient622);fill-rule:evenodd;stroke:url(#radialGradient626);stroke-width:6.125;stroke-linecap:square;stroke-dashoffset:0;"
   d="M 438.7468 75.72372 C 438.7468 108.102 412.4605 133.75 379.25 133.75 C 344.75 133.75 316.8125 107.4375 316.8125 74.93752 C 316.8125 42.43752 344.75 16.12503 379.25 16.12503 C 413.7072 16.12503 438.7468 43.01971 438.7468 75.72372 z "
   id="path663"
   sodipodi:nodetypes="ccccc" /><path
   style="font-size:12;fill:url(#linearGradient622);fill-rule:evenodd;stroke-width:6.125;stroke:url(#radialGradient626);stroke-opacity:1;stroke-dasharray:none;stroke-linecap:square;stroke-dashoffset:0;stroke-linejoin:miter;"
   d="M 287.4255 77.36154 C 287.4255 95.92404 270.1755 111.049 248.988 111.049 C 243.4255 111.049 238.1755 109.9865 233.4255 108.1115 C 226.113 125.174 209.113 137.049 189.4255 137.049 C 168.738 137.049 151.0505 123.924 144.488 105.4865 C 140.1755 105.174 136.113 104.049 132.3005 102.424 C 122.0505 121.1115 101.3005 133.7365 77.42545 133.7365 C 42.92545 133.7365 14.98795 107.424 14.98795 74.92404 C 14.98795 42.42404 42.92545 16.11154 77.42545 16.11154 C 92.36295 16.11154 106.113 21.04904 116.6755 29.54904 C 125.0505 20.48654 137.1755 14.86154 150.613 14.86154 C 169.3005 14.86154 185.363 25.67404 192.613 41.36154 C 203.863 41.98654 213.988 46.54904 221.6755 53.73654 C 228.613 47.48654 238.3005 43.67404 248.988 43.67404 C 270.1755 43.67404 287.4255 58.73654 287.4255 77.36154 z M 151.0505 60.48654 L 150.613 60.48654 L 151.0505 60.48654 z "
   id="path673" /><path
   style="font-size:12;font-weight:normal;stroke-width:1;font-family:helvetica;fill:#00008f;fill-opacity:1;"
   d="M 53.79595 65.61544 L 100.5572 67.68184 C 100.0081 52.56974 97.11935 39.79944 84.16375 39.22694 C 70.60095 38.62744 54.55525 48.43124 53.92115 62.78104 C 53.88185 63.66674 53.83495 64.72974 53.79595 65.61544 z M 44.15875 98.04794 C 55.39995 105.2895 66.45545 106.388 76.57715 106.8353 C 97.02255 107.7388 100.1524 99.79214 101.1545 77.11594 C 101.178 76.58464 101.2093 75.87594 101.2407 75.16724 L 35.95805 79.93264 C 35.84165 77.97484 35.61535 68.53974 35.69365 66.76794 C 36.65645 44.97774 57.24135 27.34714 79.30645 28.32224 C 106.4319 29.52094 119.6282 53.79194 118.4461 80.54274 C 117.2952 106.5846 98.09905 123.3092 71.37825 122.1284 C 58.62515 121.5648 45.62375 117.4402 33.79115 109.8173 L 44.15875 98.04794 z "
   id="path618"
   sodipodi:nodetypes="cccccccccccccccc" /><path
   style="font-size:12;font-weight:normal;stroke-width:1;font-family:helvetica;fill:#ffffff;fill-opacity:0.3597;"
   d="M 144.2071 43.86834 L 149.5344 97.78464 L 131.1774 91.67504 L 136.7474 45.07424 L 144.2071 43.86834 z M 137.8845 23.39094 C 141.9915 22.83964 145.6622 24.97004 146.1027 28.37314 C 146.5299 31.67324 143.5267 34.69924 139.4196 35.25044 C 135.3125 35.80154 131.6419 33.67124 131.2147 30.37114 C 130.7876 27.07114 133.7775 23.94204 137.8845 23.39094 z "
   id="path642"
   sodipodi:nodetypes="cccccccccc" /><path
   style="font-size:12;font-weight:normal;stroke-width:1;font-family:helvetica;fill:#ffffff;fill-opacity:0.3608;"
   d="M 179.7386 107.7566 L 177.7535 106.0965 L 177.7535 71.33932 C 182.7742 69.0568 187.0942 67.91553 190.8305 67.91553 C 199.4703 67.91553 202.6228 67.50622 202.6228 78.60201 L 194.8631 114.9053 L 207.1885 118.4365 L 212.6199 77.86664 C 215.8787 67.49126 213.3771 57.24564 203.2193 57.24564 C 198.1988 57.24564 185.5763 63.45398 177.7535 67.29281 L 176.6675 58.93825 L 162.4544 60.55814 L 158.6868 69.43474 L 168.0628 68.53792 L 164.8039 106.0965 L 162.8194 118.0398 L 179.7386 107.7566 z "
   id="path646"
   sodipodi:nodetypes="ccccccccccccccccc" /><text
   style="fill:black;stroke:none;font-family:URW Gothic L;font-style:normal;font-weight:normal;font-size:12;fill-opacity:1;stroke-opacity:1;stroke-width:1pt;stroke-linejoin:miter;stroke-linecap:butt;text-anchor:start;writing-mode:lr;"
   x="0.29860436"
   y="20.1655581"
   id="text716"
   sodipodi:linespacing="100%"
   xml:space="preserve"
   transform="scale(12.95818,12.95818)"><tspan
   x="0.29860437"
   y="20.1655579"
   sodipodi:role="line"
   id="tspan719">e</tspan></text><text
   style="fill:black;stroke:none;font-family:URW Gothic L;font-style:normal;font-weight:normal;font-size:12;fill-opacity:1;stroke-opacity:1;stroke-width:1pt;stroke-linejoin:miter;stroke-linecap:butt;text-anchor:start;writing-mode:lr;"
   x="-19.8828018"
   y="-13.4028216"
   id="text721"
   sodipodi:linespacing="100%"
   xml:space="preserve"
   transform="scale(-12.95818,-12.95818)"><tspan
   x="-19.8828011"
   y="-13.4028215"
   sodipodi:role="line"
   id="tspan722">e</tspan></text><text
   style="fill:black;stroke:none;font-family:URW Gothic L;font-style:normal;font-weight:normal;font-size:12;fill-opacity:1;stroke-opacity:1;stroke-width:1pt;stroke-linejoin:miter;stroke-linecap:butt;text-anchor:start;writing-mode:lr;"
   x="14.3042659"
   y="44.2708254"
   id="text724"
   sodipodi:linespacing="100%"
   xml:space="preserve"
   transform="scale(6.752713,5.525002)"><tspan
   x="14.304266"
   y="44.2708244"
   sodipodi:role="line"
   id="tspan727">in</tspan></text><image
   xlink:href="eina.png"
   sodipodi:absref="/home/pauto/eina.png"
   width="223"
   height="103"
   id="image639"
   x="-55.2098694"
   y="-115.220596" /><path
   style="font-size:12;fill:#ffffff;fill-opacity:0.3608;"
   d="M 233.0625 65.50003 C 239.375 62.06253 245.5625 61.5625 251.25 61.37497 C 262.6875 61.83762 263.9134 67.78519 265 76.58455 C 265.6001 82.83562 265.3594 71.21414 265.0625 76.31248 L 228.4375 74.0625 C 228.375 75 228.25 79.43748 228.3125 80.25002 C 228.8125 90.56252 240.375 98.87497 252.75 98.4375 C 257.25 98.24997 261.0625 97.12502 264.125 95.18753 L 264.125 95.68748 L 271.1776 98.23357 L 274.9967 90.39803 L 269.352 90.39803 C 272.4145 86.14807 273.1997 79.43748 272.8872 73.75 C 272.2622 61.50002 263.3125 53.56247 248.3125 54.12498 C 241.1875 54.43748 233.875 56.37497 227.25 59.93752 L 233.0625 65.50003 z M 238.4375 80.81253 L 264.6875 79.81247 C 264.375 86.93748 262.75 93.00003 255.5 93.24997 C 247.875 93.56247 238.875 88.93753 238.5 82.12502 C 238.5 81.75003 238.5 81.25 238.4375 80.81253 z "
   id="path651"
   sodipodi:nodetypes="ccccccccccccccccccccc" /><path
   style="font-size:12;font-weight:normal;stroke-width:1;font-family:helvetica;fill:#00008f;fill-opacity:1;"
   d="M 53.79595 65.61544 L 100.5572 67.68184 C 100.0081 52.56974 97.11935 39.79944 84.16375 39.22694 C 70.60095 38.62744 54.55525 48.43124 53.92115 62.78104 C 53.88185 63.66674 53.83495 64.72974 53.79595 65.61544 z M 44.15875 98.04794 C 55.39995 105.2895 66.45545 106.388 76.57715 106.8353 C 97.02255 107.7388 100.1524 99.79214 101.1545 77.11594 C 101.178 76.58464 101.2093 75.87594 101.2407 75.16724 L 35.95805 79.93264 C 35.84165 77.97484 35.61535 68.53974 35.69365 66.76794 C 36.65645 44.97774 57.24135 27.34714 79.30645 28.32224 C 106.4319 29.52094 119.6282 53.79194 118.4461 80.54274 C 117.2952 106.5846 98.09905 123.3092 71.37825 122.1284 C 58.62515 121.5648 45.62375 117.4402 33.79115 109.8173 L 44.15875 98.04794 z "
   id="path652"
   sodipodi:nodetypes="cccccccccccccccc" /><path
   style="font-size:12;font-weight:normal;stroke-width:1;font-family:helvetica;fill:#00008f;fill-opacity:1;"
   d="M 355.6513 65.61541 L 402.4125 67.68181 C 401.8634 52.56971 398.9747 39.79941 386.0191 39.22691 C 372.4563 38.62741 356.4106 48.43121 355.7765 62.78101 C 355.7372 63.66671 355.6903 64.72971 355.6513 65.61541 z M 346.0141 98.04791 C 357.2553 105.2895 368.3108 106.388 378.4325 106.8353 C 398.8779 107.7388 402.0077 99.79211 403.0098 77.11591 C 403.0333 76.58461 403.0646 75.87591 403.096 75.16721 L 337.8134 79.93261 C 337.697 77.97481 337.4707 68.53971 337.549 66.76791 C 338.5118 44.97771 359.0967 27.34711 381.1618 28.32221 C 408.2872 29.52091 421.4835 53.79191 420.3014 80.54271 C 419.1505 106.5846 399.9544 123.3092 373.2336 122.1284 C 360.4805 121.5648 347.4791 117.4402 335.6465 109.8173 L 346.0141 98.04791 z "
   id="path655"
   sodipodi:nodetypes="cccccccccccccccc" /></svg>
