<?xml version="1.0" encoding="UTF-8" standalone="no"?>
<!-- Created with Sodipodi ("http://www.sodipodi.com/") -->
<svg
   xmlns:dc="http://purl.org/dc/elements/1.1/"
   xmlns:cc="http://creativecommons.org/ns#"
   xmlns:rdf="http://www.w3.org/1999/02/22-rdf-syntax-ns#"
   xmlns:svg="http://www.w3.org/2000/svg"
   xmlns="http://www.w3.org/2000/svg"
   xmlns:xlink="http://www.w3.org/1999/xlink"
   xmlns:sodipodi="http://sodipodi.sourceforge.net/DTD/sodipodi-0.dtd"
   xmlns:inkscape="http://www.inkscape.org/namespaces/inkscape"
   id="svg602"
   sodipodi:version="0.32"
   width="462.04214"
   height="282.16449"
   xml:space="preserve"
   sodipodi:docbase="/home/pauto"
   sodipodi:docname="logo.svg"
   inkscape:version="0.46"
   inkscape:output_extension="org.inkscape.output.svg.inkscape"
   version="1.0"><metadata
     id="metadata46"><rdf:RDF><cc:Work
         rdf:about=""><dc:format>image/svg+xml</dc:format><dc:type
           rdf:resource="http://purl.org/dc/dcmitype/StillImage" /></cc:Work></rdf:RDF></metadata><defs
     id="defs604"><inkscape:perspective
       sodipodi:type="inkscape:persp3d"
       inkscape:vp_x="0 : 526.18109 : 1"
       inkscape:vp_y="0 : 1000 : 0"
       inkscape:vp_z="744.09448 : 526.18109 : 1"
       inkscape:persp3d-origin="372.04724 : 350.78739 : 1"
       id="perspective48" /><linearGradient
       id="linearGradient675"><stop
         style="stop-color:#f3ffff;stop-opacity:1;"
         offset="0"
         id="stop676" /><stop
         style="stop-color:#61b2e5;stop-opacity:1;"
         offset="1"
         id="stop677" /></linearGradient><linearGradient
       id="linearGradient630"><stop
         style="stop-color:#000000;stop-opacity:1;"
         offset="0"
         id="stop631" /><stop
         style="stop-color:#ffffff;stop-opacity:1;"
         offset="1"
         id="stop632" /></linearGradient><linearGradient
       id="linearGradient619"><stop
         style="stop-color:#9ee2e7;stop-opacity:0.7608;"
         offset="0"
         id="stop620" /><stop
         style="stop-color:#8fcaff;stop-opacity:1;"
         offset="1"
         id="stop621" /></linearGradient><linearGradient
       xlink:href="#linearGradient619"
       id="linearGradient622"
       x1="109.06805"
       y1="107.18766"
       x2="109.06805"
       y2="36.29079"
       spreadMethod="reflect"
       gradientTransform="matrix(1.4734213,0,0,0.6786925,20.232846,-11.79904)"
       gradientUnits="userSpaceOnUse" /><linearGradient
       xlink:href="#linearGradient619"
       id="linearGradient623"
       x1="0.49230829"
       y1="0.31249955"
       x2="0.50769264"
       y2="0.79687488"
       spreadMethod="reflect" /><linearGradient
       xlink:href="#linearGradient630"
       id="linearGradient624" /><linearGradient
       xlink:href="#linearGradient630"
       id="linearGradient625" /><radialGradient
       xlink:href="#linearGradient675"
       id="radialGradient626"
       cx="193.08801"
       cy="59.943665"
       r="173.55659"
       fx="193.08801"
       fy="59.943665"
       gradientUnits="userSpaceOnUse"
       gradientTransform="matrix(1.4734213,0,0,0.6786925,20.232846,-11.79904)"
       spreadMethod="pad" /><radialGradient
       xlink:href="#linearGradient675"
       id="radialGradient627"
       cx="504.36838"
       cy="-24.193085"
       r="86.602783"
       fx="504.36838"
       fy="-24.193085" /><radialGradient
       xlink:href="#linearGradient619"
       id="radialGradient628"
       cx="-2.4842575"
       cy="-0.33455962"
       r="2.3671312"
       fx="-2.4842575"
       fy="-0.33455962"
       gradientUnits="objectBoundingBox"
       spreadMethod="reflect" /><radialGradient
       xlink:href="#linearGradient619"
       id="radialGradient629"
       cx="-1.1124051"
       cy="-0.26764762"
       r="1.8937047"
       fx="-1.1124051"
       fy="-0.26764762"
       gradientUnits="objectBoundingBox"
       spreadMethod="reflect" /><linearGradient
       inkscape:collect="always"
       xlink:href="#linearGradient619"
       id="linearGradient2421"
       spreadMethod="reflect"
       x1="375.66049"
       y1="73.083968"
       x2="375.66049"
       y2="25.876642"
       gradientTransform="matrix(1.0172624,0,0,0.9830305,20.232846,-11.79904)"
       gradientUnits="userSpaceOnUse" /><radialGradient
       inkscape:collect="always"
       xlink:href="#linearGradient675"
       id="radialGradient2423"
       gradientUnits="userSpaceOnUse"
       gradientTransform="matrix(1.0172624,0,0,0.9830305,20.232846,-11.79904)"
       spreadMethod="pad"
       cx="431.60595"
       cy="41.626123"
       fx="431.60595"
       fy="41.626123"
       r="115.56423" /></defs><sodipodi:namedview
     id="base"
     showgrid="false"
     inkscape:zoom="0.46942014"
     inkscape:cx="372.04724"
     inkscape:cy="440.96958"
     inkscape:window-width="641"
     inkscape:window-height="696"
     inkscape:window-x="379"
     inkscape:window-y="47"
     inkscape:current-layer="svg602"><sodipodi:guide
       orientation="horizontal"
       position="728.846375"
       id="guide678" /><sodipodi:guide
       orientation="vertical"
       position="240.1745"
       id="guide679" /><sodipodi:guide
       orientation="horizontal"
       position="621.243408"
       id="guide729" /><sodipodi:guide
       orientation="vertical"
       position="250.605927"
       id="guide657" /><sodipodi:guide
       orientation="horizontal"
       position="832.472595"
       id="guide658" /><sodipodi:guide
       orientation="horizontal"
       position="807.946899"
       id="guide685" /><sodipodi:guide
       orientation="horizontal"
       position="756.007446"
       id="guide686" /><sodipodi:guide
       orientation="vertical"
       position="303.149811"
       id="guide687" /><sodipodi:guide
       orientation="horizontal"
       position="781.467957"
       id="guide688" /></sodipodi:namedview><path
     style="font-size:12px;fill:url(#linearGradient2421);fill-rule:evenodd;stroke:url(#radialGradient2423);stroke-width:6.125;stroke-linecap:square;stroke-dashoffset:0"
     d="M 458.97965,63.92468 C 458.97965,96.30296 432.69335,121.95096 399.48285,121.95096 C 364.98285,121.95096 337.04535,95.63846 337.04535,63.13848 C 337.04535,30.63848 364.98285,4.32599 399.48285,4.32599 C 433.94005,4.32599 458.97965,31.22067 458.97965,63.92468 z"
     id="path663"
     sodipodi:nodetypes="ccccc" /><path
     style="font-size:12px;fill:url(#linearGradient622);fill-rule:evenodd;stroke:url(#radialGradient626);stroke-width:6.125;stroke-linecap:square;stroke-linejoin:miter;stroke-dasharray:none;stroke-dashoffset:0;stroke-opacity:1"
     d="M 307.65835,65.5625 C 307.65835,84.125 290.40835,99.24996 269.22085,99.24996 C 263.65835,99.24996 258.40835,98.18746 253.65835,96.31246 C 246.34585,113.37496 229.34585,125.24996 209.65835,125.24996 C 188.97085,125.24996 171.28335,112.12496 164.72085,93.68746 C 160.40835,93.37496 156.34585,92.24996 152.53335,90.62496 C 142.28335,109.31246 121.53335,121.93746 97.658296,121.93746 C 63.158296,121.93746 35.220796,95.62496 35.220796,63.125 C 35.220796,30.625 63.158296,4.3125 97.658296,4.3125 C 112.5958,4.3125 126.34585,9.25 136.90835,17.75 C 145.28335,8.6875 157.40835,3.0625 170.84585,3.0625 C 189.53335,3.0625 205.59585,13.875 212.84585,29.5625 C 224.09585,30.1875 234.22085,34.75 241.90835,41.9375 C 248.84585,35.6875 258.53335,31.875 269.22085,31.875 C 290.40835,31.875 307.65835,46.9375 307.65835,65.5625 z M 171.28335,48.6875 L 170.84585,48.6875 L 171.28335,48.6875 z"
     id="path673" /><path
     style="font-size:12px;font-weight:normal;fill:#00008f;fill-opacity:1;stroke-width:1;font-family:helvetica"
     d="M 74.028796,53.8164 L 120.79005,55.8828 C 120.24095,40.7707 117.3522,28.0004 104.3966,27.4279 C 90.833796,26.8284 74.788096,36.6322 74.153996,50.982 C 74.114696,51.8677 74.067796,52.9307 74.028796,53.8164 z M 64.391596,86.2489 C 75.632796,93.49046 86.688296,94.58896 96.809996,95.03626 C 117.2554,95.93976 120.38525,87.9931 121.38735,65.3169 C 121.41085,64.7856 121.44215,64.0769 121.47355,63.3682 L 56.190896,68.1336 C 56.074496,66.1758 55.848196,56.7407 55.926496,54.9689 C 56.889296,33.1787 77.474196,15.5481 99.539296,16.5232 C 126.66475,17.7219 139.86105,41.9929 138.67895,68.7437 C 137.52805,94.78556 118.3319,111.51016 91.611096,110.32936 C 78.857996,109.76576 65.856596,105.64116 54.023996,98.01826 L 64.391596,86.2489 z"
     id="path618"
     sodipodi:nodetypes="cccccccccccccccc" /><path
     style="font-size:12px;font-weight:normal;fill:#ffffff;fill-opacity:0.35969998;stroke-width:1;font-family:helvetica"
     d="M 164.43995,32.0693 L 169.76725,85.9856 L 151.41025,79.876 L 156.98025,33.2752 L 164.43995,32.0693 z M 158.11735,11.5919 C 162.22435,11.0406 165.89505,13.171 166.33555,16.5741 C 166.76275,19.8742 163.75955,22.9002 159.65245,23.4514 C 155.54535,24.0025 151.87475,21.8722 151.44755,18.5721 C 151.02045,15.2721 154.01035,12.143 158.11735,11.5919 z"
     id="path642"
     sodipodi:nodetypes="cccccccccc" /><path
     style="font-size:12px;font-weight:normal;fill:#ffffff;fill-opacity:0.36079999;stroke-width:1;font-family:helvetica"
     d="M 199.97145,95.95756 L 197.98635,94.29746 L 197.98635,59.54028 C 203.00705,57.25776 207.32705,56.11649 211.06335,56.11649 C 219.70315,56.11649 222.85565,55.70718 222.85565,66.80297 L 215.09595,103.10626 L 227.42135,106.63746 L 232.85275,66.0676 C 236.11155,55.69222 233.60995,45.4466 223.45215,45.4466 C 218.43165,45.4466 205.80915,51.65494 197.98635,55.49377 L 196.90035,47.13921 L 182.68725,48.7591 L 178.91965,57.6357 L 188.29565,56.73888 L 185.03675,94.29746 L 183.05225,106.24076 L 199.97145,95.95756 z"
     id="path646"
     sodipodi:nodetypes="ccccccccccccccccc" /><text
     style="font-size:155.49815369px;font-style:normal;font-weight:normal;line-height:100%;writing-mode:lr-tb;text-anchor:start;fill:#000000;fill-opacity:1;stroke:none;stroke-width:1pt;stroke-linecap:butt;stroke-linejoin:miter;stroke-opacity:1;font-family:URW Gothic L"
     x="24.102215"
     y="249.50989"
     id="text716"
     sodipodi:linespacing="100%"
     xml:space="preserve"><tspan
       x="24.102215"
       y="249.50989"
       sodipodi:role="line"
       id="tspan719">e</tspan></text>
<text
     style="font-size:155.49815369px;font-style:normal;font-weight:normal;line-height:100%;writing-mode:lr-tb;text-anchor:start;fill:#000000;fill-opacity:1;stroke:none;stroke-width:1pt;stroke-linecap:butt;stroke-linejoin:miter;stroke-opacity:1;font-family:URW Gothic L"
     x="-277.87775"
     y="-161.87714"
     id="text721"
     sodipodi:linespacing="100%"
     xml:space="preserve"
     transform="scale(-1,-1)"><tspan
       x="-277.87775"
       y="-161.87714"
       sodipodi:role="line"
       id="tspan722">e</tspan></text>
<text
     style="font-size:73.29707336px;font-style:normal;font-weight:normal;line-height:100%;writing-mode:lr-tb;text-anchor:start;fill:#000000;fill-opacity:1;stroke:none;stroke-width:1pt;stroke-linecap:butt;stroke-linejoin:miter;stroke-opacity:1;font-family:URW Gothic L"
     x="105.67312"
     y="257.36588"
     id="text724"
     sodipodi:linespacing="100%"
     xml:space="preserve"
     transform="scale(1.1055361,0.9045385)"><tspan
       x="105.67312"
       y="257.36588"
       sodipodi:role="line"
       id="tspan727">in</tspan></text>
<path
     style="font-size:12px;fill:#ffffff;fill-opacity:0.36079999"
     d="M 253.29535,53.70099 C 259.60785,50.26349 265.79535,49.76346 271.48285,49.57593 C 282.92035,50.03858 284.14625,55.98615 285.23285,64.78551 C 285.83295,71.03658 285.59225,59.4151 285.29535,64.51344 L 248.67035,62.26346 C 248.60785,63.20096 248.48285,67.63844 248.54535,68.45098 C 249.04535,78.76348 260.60785,87.07593 272.98285,86.63846 C 277.48285,86.45093 281.29535,85.32598 284.35785,83.38849 L 284.35785,83.88844 L 291.41045,86.43453 L 295.22955,78.59899 L 289.58485,78.59899 C 292.64735,74.34903 293.43255,67.63844 293.12005,61.95096 C 292.49505,49.70098 283.54535,41.76343 268.54535,42.32594 C 261.42035,42.63844 254.10785,44.57593 247.48285,48.13848 L 253.29535,53.70099 z M 258.67035,69.01349 L 284.92035,68.01343 C 284.60785,75.13844 282.98285,81.20099 275.73285,81.45093 C 268.10785,81.76343 259.10785,77.13849 258.73285,70.32598 C 258.73285,69.95099 258.73285,69.45096 258.67035,69.01349 z"
     id="path651"
     sodipodi:nodetypes="ccccccccccccccccccccc" /><path
     style="font-size:12px;font-weight:normal;fill:#00008f;fill-opacity:1;stroke-width:1;font-family:helvetica"
     d="M 74.028796,53.8164 L 120.79005,55.8828 C 120.24095,40.7707 117.3522,28.0004 104.3966,27.4279 C 90.833796,26.8284 74.788096,36.6322 74.153996,50.982 C 74.114696,51.8677 74.067796,52.9307 74.028796,53.8164 z M 64.391596,86.2489 C 75.632796,93.49046 86.688296,94.58896 96.809996,95.03626 C 117.2554,95.93976 120.38525,87.9931 121.38735,65.3169 C 121.41085,64.7856 121.44215,64.0769 121.47355,63.3682 L 56.190896,68.1336 C 56.074496,66.1758 55.848196,56.7407 55.926496,54.9689 C 56.889296,33.1787 77.474196,15.5481 99.539296,16.5232 C 126.66475,17.7219 139.86105,41.9929 138.67895,68.7437 C 137.52805,94.78556 118.3319,111.51016 91.611096,110.32936 C 78.857996,109.76576 65.856596,105.64116 54.023996,98.01826 L 64.391596,86.2489 z"
     id="path652"
     sodipodi:nodetypes="cccccccccccccccc" /><path
     style="font-size:12px;font-weight:normal;fill:#00008f;fill-opacity:1;stroke-width:1;font-family:helvetica"
     d="M 375.88415,53.81637 L 422.64535,55.88277 C 422.09625,40.77067 419.20755,28.00037 406.25195,27.42787 C 392.68915,26.82837 376.64345,36.63217 376.00935,50.98197 C 375.97005,51.86767 375.92315,52.93067 375.88415,53.81637 z M 366.24695,86.24887 C 377.48815,93.49046 388.54365,94.58896 398.66535,95.03626 C 419.11075,95.93976 422.24055,87.99307 423.24265,65.31687 C 423.26615,64.78557 423.29745,64.07687 423.32885,63.36817 L 358.04625,68.13357 C 357.92985,66.17577 357.70355,56.74067 357.78185,54.96887 C 358.74465,33.17867 379.32955,15.54807 401.39465,16.52317 C 428.52005,17.72187 441.71635,41.99287 440.53425,68.74367 C 439.38335,94.78556 420.18725,111.51016 393.46645,110.32936 C 380.71335,109.76576 367.71195,105.64116 355.87935,98.01826 L 366.24695,86.24887 z"
     id="path655"
     sodipodi:nodetypes="cccccccccccccccc" /></svg>